# xmcd CD database file
#
# Track frame offsets:
#	150
#	25529
#	52379
#	76649
#	107194
#	134627
#	159958
#	188578
#	212774
#
# Disc length: 3206 seconds
#
# Revision: 1
# Processed by: cddbd v1.5.1PL2 Copyright (c) Steve Scherf et al.
# Submitted via: CDex 1.51
#
DISCID=710c8409
DTITLE=Joey Defrancesco - Plays Sinatra His Way
DYEAR=1998
DGENRE=Jazz
TTITLE0=I Get a Kick Out of You
TTITLE1=Teach Me Tonight
TTITLE2=Pennies from Heaven
TTITLE3=What's New
TTITLE4=Witchcraft
TTITLE5=WHat Now My Love
TTITLE6=Don't Worry 'Bout Me
TTITLE7=Falling in Love With Love
TTITLE8=Angel Eyes
EXTD=YEAR: 1998
EXTT0=
EXTT1=
EXTT2=
EXTT3=
EXTT4=
EXTT5=
EXTT6=
EXTT7=
EXTT8=
PLAYORDER=
